<svg width="34" height="35" viewBox="0 0 50 50" focusable="false" role="presentation" class="css-1d6sf3y"><g fill="#ff4c2f"><path d="m15.6879 8.35569c-2.5168.80537-5.0503 1.61074-5.646 1.79531l-1.0654.344v7.3993c0 4.4295.03356 7.7684.08389 8.3221.36913 3.8759 2.04701 7.5504 4.84901 10.6041.6376.6963 10.755 9.5134 11.0403 9.6224.1174.042 9.01-7.5419 10.4698-8.9345 2.5335-2.4077 4.5134-5.9312 5.2181-9.3037.3691-1.7785.3943-2.4413.3691-10.3272l-.0252-7.4161-5.6963-1.7953c-3.1292-.98155-5.7047-1.77853-5.7215-1.77014-.0083.01678.4615.94799 1.0571 2.08054l1.0822 2.0554 1.6191.5201c.8893.2852 2.2316.7131 2.9866.948l1.3675.4278-.0336 6.8121c-.0252 6.5436-.0335 6.8457-.2013 7.6091-.6376 2.8775-1.9547 5.3188-3.9765 7.3825-.386.3943-2.349 2.1309-4.3541 3.8507-2.005 1.7282-3.75 3.2299-3.8758 3.3473l-.2181.2014-3.8507-3.3138c-4.7064-4.0604-5.4111-4.7483-6.5352-6.4765-.8641-1.3339-1.5017-2.7685-1.8876-4.2534-.3775-1.51-.4111-2.0721-.4111-8.8003v-6.3507l1.1997-.3775c.6543-.2097 1.9966-.6376 2.9782-.948.9731-.3104 1.7785-.5956 1.7785-.6208 0-.0251.4698-.948 1.0486-2.04696.5789-1.10738 1.0487-2.02181 1.0487-2.03859 0-.05033-.1007-.01678-4.698 1.45134z"></path><path d="m24.782 7.14765c-.0755.151-2.1896 4.18625-4.6896 8.95975l-4.5469 8.6829.0671.7047c.151 1.4429.6879 2.9698 1.5604 4.354.3104.5033.4027.5956.4866.5033.0503-.0587 1.7114-3.1963 3.6912-6.9714 1.9715-3.7668 3.6074-6.8541 3.641-6.8541.0251 0 1.6862 3.0537 3.6828 6.7786 1.9967 3.7248 3.6661 6.8372 3.7165 6.9211.0839.1426.1006.1342.2349-.0419.8641-1.1326 1.5772-3.0034 1.7785-4.6561l.1007-.8389-4.7651-8.8842c-2.6175-4.8826-4.7735-8.90104-4.7903-8.90943-.0084-.01678-.0839.09228-.1678.25168z"></path><path d="m22.651 28.5152-2.307 4.6057 1.3003 1.1326c.7131.6208 1.7617 1.5184 2.3238 1.9882l1.0319.8557.2265-.1846c.1342-.1006 1.1661-.9983 2.2987-1.9966l2.0721-1.8121-2.2986-4.5973c-1.2668-2.5251-2.3071-4.5973-2.3239-4.5973-.0083 0-1.057 2.0722-2.3238 4.6057z"></path></g></svg>
