<svg width="750" height="1027" viewBox="0 0 750 1027" fill="none" xmlns="http://www.w3.org/2000/svg">
  <path d="M748.582 241.943C748.775 218.253 740.397 205.998 720.558 194.755C612.137 133.41 504.287 71.1906 397.005 8.0963C381.019 -1.36543 369.487 -1.36543 353.525 8.0963C244.221 72.0413 134.565 135.28 24.5549 197.813C7.34077 207.587 1.7793 219.023 1.7793 238.38C2.54972 385.434 2.54972 532.4 1.7793 679.278C1.7793 700.657 9.17053 711.563 26.9624 721.434C153.167 792.096 278.914 863.745 404.782 935.178L562.213 1024.74C562.213 954.92 564.09 892.01 561.394 829.221C560.07 797.922 570.904 781.069 598.061 767.298C640.675 745.63 680.665 718.882 723.038 696.588C743.117 686.043 748.534 672.633 748.366 651.133C747.499 514.793 747.234 378.38 748.366 242.015M514.591 926.125C514.711 932.192 514.591 926.438 514.711 941.052C429.219 892.564 343.509 844.461 261.7 796.791C257.683 794.034 254.312 790.439 251.818 786.253C249.324 782.068 247.767 777.392 247.255 772.547C246.46 575.608 246.653 378.621 246.653 175.904C271.98 189.916 293.889 201.954 315.654 214.232C375.072 247.36 434.9 279.838 493.549 314.339C503.179 319.997 513.796 334.394 513.869 345.011C515.048 538.796 514.759 732.629 514.639 926.438L514.591 926.125Z" stroke="#F7F7CE" stroke-width="2" stroke-miterlimit="10"/>
  <path d="M738.494 249.286C738.663 226.246 730.549 214.304 711.217 203.374C605.91 143.698 501.044 83.1642 396.62 21.7712C381.043 12.6225 369.824 12.6225 354.319 21.7712C248.017 83.9827 141.33 145.512 34.2573 206.359C17.5247 215.99 12.1077 226.992 12.1077 245.819C12.846 388.877 12.846 531.862 12.1077 674.775C12.1077 695.577 19.3304 706.074 36.6167 715.704C159.403 784.44 281.755 854.163 404.204 923.573L557.349 1010.7C557.349 942.737 559.179 881.561 556.579 820.505C555.279 790.122 565.824 773.678 592.235 760.316C633.717 739.274 672.599 713.2 713.817 691.532C733.366 681.276 738.639 668.203 738.47 647.281C737.628 514.648 737.363 381.943 738.47 249.262M510.955 914.93C510.955 920.829 510.955 915.243 510.955 929.375C427.774 882.187 344.4 835.48 264.806 788.99C260.89 786.315 257.6 782.823 255.165 778.754C252.729 774.685 251.205 770.135 250.697 765.42C249.927 573.802 250.12 382.16 250.12 184.932C274.773 198.583 296.056 210.284 317.243 222.225C375.024 254.462 433.263 286.05 490.323 319.611C499.76 325.125 510.016 339.113 510.089 349.465C511.244 538.002 510.955 726.562 510.835 915.243L510.955 914.93Z" stroke="#F7F7CE" stroke-width="1.94" stroke-miterlimit="10"/>
  <path d="M728.672 256.533C728.864 234.119 720.968 222.514 702.189 211.897C599.771 153.874 497.85 95.0255 396.428 35.35C381.308 26.466 370.402 26.466 355.306 35.35C251.861 95.9404 148.087 155.784 43.984 214.882C27.7089 224.151 22.3159 234.937 22.3159 253.259C23.0703 392.32 23.1104 531.349 22.4363 670.345C22.4363 690.593 29.4423 700.873 46.2712 710.239C165.638 777.073 284.62 844.846 403.626 912.306L552.51 997.028C552.51 930.965 554.292 871.498 551.74 812.103C550.464 782.586 560.744 766.576 586.409 753.527C626.735 733.087 664.558 707.783 704.62 686.669C723.616 676.701 728.696 664.014 728.575 643.67C727.757 514.72 727.492 385.699 728.575 256.726M507.368 903.735C507.489 909.465 507.368 904.024 507.489 917.867C426.618 871.979 345.58 826.5 268.201 781.382C264.387 778.794 261.186 775.404 258.819 771.449C256.453 767.494 254.979 763.07 254.502 758.486C253.731 572.213 253.9 385.892 253.9 194.153C277.975 207.419 298.584 218.806 319.169 230.411C375.385 261.709 431.939 292.454 487.434 325.101C496.606 330.445 506.694 344.048 506.694 353.991C507.826 537.303 507.537 720.591 507.416 903.928L507.368 903.735Z" stroke="#F7F7CE" stroke-width="1.88" stroke-miterlimit="10"/>
  <path d="M718.656 263.973C718.849 242.304 711.169 230.941 692.919 220.636C593.503 164.267 494.488 107.12 395.874 49.1936C381.188 40.5504 370.594 40.5504 355.932 49.1936C255.569 107.89 154.828 165.969 53.7106 223.429C37.8929 232.409 32.7888 242.906 32.7888 260.698C33.479 395.795 33.479 530.811 32.7888 665.747C32.7888 685.393 39.5782 695.408 55.9255 704.485C171.874 769.489 287.389 835.24 403.024 900.774L547.647 983.064C547.647 918.879 549.38 861.121 546.925 803.436C545.673 774.762 555.64 759.233 580.63 746.545C619.802 726.683 656.541 702.053 695.447 681.541C713.913 671.911 718.873 659.536 718.728 639.77C717.934 514.576 717.693 389.214 718.728 263.924M503.829 892.54C503.949 898.126 503.829 892.829 503.949 906.263C425.511 861.699 346.687 817.52 271.427 773.702C267.718 771.185 264.605 767.888 262.305 764.041C260.006 760.194 258.575 755.891 258.113 751.432C257.367 570.504 257.535 389.527 257.535 203.278C280.816 216.182 300.871 227.353 320.95 238.5C375.53 268.932 430.471 298.69 484.376 330.47C493.284 335.67 502.962 348.887 503.035 358.638C504.118 536.798 503.853 714.741 503.733 892.829L503.829 892.54Z" stroke="#F7F7CE" stroke-width="1.82" stroke-miterlimit="10"/>
  <path d="M708.761 271.171C708.93 250.033 701.538 239.102 683.771 229.087C587.291 174.483 491.205 119.053 395.513 62.7962C381.26 54.4179 370.956 54.4179 356.751 62.7962C259.325 119.807 161.545 176.201 63.413 231.976C48.0768 240.691 43.1172 250.875 43.1172 268.089C43.7913 399.173 43.7913 530.209 43.1172 661.197C43.1172 680.265 49.7139 689.967 65.5798 698.779C178.109 761.833 290.23 825.73 402.446 889.434L542.808 969.293C542.808 907.009 544.469 850.937 542.085 794.961C540.882 767.13 550.56 752.058 574.756 739.756C612.771 720.495 648.427 696.564 686.202 676.726C704.114 667.312 708.93 655.346 708.785 636.182C708.015 514.624 707.774 393.018 708.785 271.412M500.29 881.345C500.29 886.762 500.29 881.609 500.29 894.658C424.066 851.322 347.65 808.54 274.701 765.998C271.1 763.546 268.08 760.335 265.85 756.592C263.621 752.849 262.238 748.664 261.796 744.33C261.074 568.722 261.243 393.09 261.243 212.258C283.85 224.777 303.351 235.515 322.78 246.445C375.747 275.986 429.074 304.949 481.391 335.694C490.034 340.774 499.423 353.582 499.495 363.044C500.555 535.835 500.29 708.65 500.194 881.465L500.29 881.345Z" stroke="#F7F7CE" stroke-width="1.76" stroke-miterlimit="10"/>
  <path d="M698.866 278.779C699.035 258.291 691.812 247.673 674.646 237.85C581.024 184.884 487.819 131.115 395.031 76.5434C381.212 68.4299 371.244 68.4299 357.449 76.5434C263.073 131.773 168.303 186.425 73.1397 240.499C58.2609 248.949 53.4458 258.82 53.4458 275.577C54.1199 402.696 54.1199 529.744 53.4458 656.719C53.4458 675.233 59.8499 684.622 75.2343 693.193C184.345 754.273 293.047 816.22 401.869 877.902L537.944 955.329C537.944 894.923 539.582 840.585 537.246 786.294C536.091 759.305 545.48 744.691 568.93 732.75C605.79 714.067 640.362 690.906 676.981 671.646C694.364 662.521 699.035 650.916 698.89 632.33C698.144 514.48 697.903 396.533 698.89 278.659M496.727 870.173C496.727 875.422 496.727 870.438 496.727 883.078C422.815 841.138 348.734 799.56 277.999 758.342C274.518 755.968 271.594 752.865 269.433 749.248C267.271 745.631 265.922 741.587 265.48 737.396C264.782 567.133 264.95 396.822 264.95 221.575C286.859 233.613 305.879 244.11 324.61 254.703C375.987 283.353 427.678 311.426 478.405 341.376C486.784 346.191 495.884 358.71 495.956 367.859C496.992 535.401 496.727 702.944 496.63 870.535L496.727 870.173Z" stroke="#F7F7CE" stroke-width="1.7" stroke-miterlimit="10"/>
  <path d="M689.067 286.002C689.236 266.139 682.23 255.883 665.593 246.469C574.924 195.092 484.649 142.976 394.766 90.1221C381.38 82.2493 371.702 82.2493 358.34 90.1221C266.852 143.666 175.02 196.633 82.8421 249.021C68.3967 257.207 63.7742 266.765 63.7742 282.992C64.4322 406.115 64.4322 529.182 63.7742 652.192C63.7742 670.105 69.9857 679.229 84.8644 687.511C190.557 746.689 295.864 806.686 401.267 866.442L533.105 941.437C533.105 882.934 534.67 830.28 532.431 777.723C531.299 751.577 540.4 737.42 563.127 725.864C598.832 707.759 632.297 685.321 667.784 666.662C684.637 657.826 689.139 646.607 688.995 628.598C688.273 514.432 688.032 400.193 688.995 286.002M493.164 858.954C493.164 864.034 493.164 859.195 493.164 871.45C421.563 830.834 349.817 790.555 281.298 750.614C277.941 748.31 275.126 745.303 273.048 741.803C270.969 738.303 269.676 734.392 269.26 730.342C268.586 565.4 268.754 400.505 268.754 230.676C289.965 242.425 308.287 252.512 326.536 262.769C376.3 290.528 426.378 317.709 475.492 346.6C483.63 351.415 492.465 363.453 492.513 372.289C493.525 534.583 493.26 696.877 493.164 859.195V858.954Z" stroke="#F7F7CE" stroke-width="1.64" stroke-miterlimit="10"/>
  <path d="M679.172 293.321C679.317 274.06 672.551 264.189 656.469 255.089C568.705 205.332 481.342 154.91 394.381 103.821C381.428 96.2133 372.087 96.2133 359.158 103.821C270.608 155.68 181.745 206.929 92.5687 257.568C78.6289 265.489 74.1267 274.758 74.1267 290.432C74.7366 409.59 74.7366 528.684 74.1267 647.714C74.1267 665.049 80.1216 673.861 94.5188 681.878C196.792 739.13 298.704 797.2 400.689 855.006L528.29 927.594C528.29 870.992 529.831 820.024 527.64 769.152C526.557 743.849 535.344 730.149 557.349 718.978C591.898 701.451 624.304 679.735 658.612 661.678C674.911 653.156 679.293 642.273 679.148 624.843C678.45 514.359 678.233 403.828 679.148 293.321M489.6 847.759C489.6 852.574 489.6 848 489.6 859.797C420.335 820.505 350.876 781.527 284.596 742.885C281.327 740.662 278.582 737.753 276.553 734.36C274.524 730.967 273.259 727.172 272.847 723.24C272.197 563.666 272.342 404.045 272.342 239.752C292.878 251.116 310.622 260.891 328.269 270.81C376.421 297.654 424.885 323.969 472.41 351.945C480.283 356.543 488.83 368.196 488.878 376.791C489.841 533.837 489.6 690.882 489.504 847.952L489.6 847.759Z" stroke="#F7F7CE" stroke-width="1.58" stroke-miterlimit="10"/>
  <path d="M669.373 300.808C669.518 282.27 662.969 272.64 647.416 263.852C562.542 215.701 478.076 166.915 394.02 117.496C381.476 110.273 372.352 110.273 359.953 117.496C274.388 167.606 188.518 217.145 102.343 266.115C88.8609 273.771 84.5032 282.703 84.5032 297.871C85.1131 413.049 85.1131 528.155 84.5032 643.188C84.5032 660.041 90.3054 668.492 104.221 676.22C203.076 731.594 301.642 787.69 400.159 843.57L523.451 913.726C523.451 859.002 524.919 809.768 522.825 760.581C521.765 736.144 530.264 722.903 551.523 712.093C584.916 695.24 616.238 674.15 649.415 656.719C665.16 648.461 669.373 637.94 669.253 621.087C668.579 514.311 668.362 407.487 669.253 300.664M486.037 836.468C486.037 841.283 486.037 836.708 486.037 848.168C419.083 810.177 351.96 772.523 287.894 735.157C284.735 733.011 282.081 730.202 280.119 726.926C278.156 723.649 276.932 719.984 276.531 716.186C276.001 562.005 276.242 407.728 276.242 249.021C296.104 260.024 313.246 269.438 330.292 279.068C376.83 304.997 423.681 330.445 469.617 357.458C477.225 361.912 485.483 373.156 485.531 381.534C486.47 533.331 486.23 685.104 486.133 836.925L486.037 836.468Z" stroke="#F7F7CE" stroke-width="1.52" stroke-miterlimit="10"/>
  <path d="M659.286 307.862C659.43 289.95 653.098 280.681 638.099 272.182C556.242 225.78 474.722 178.729 393.539 131.027C381.501 123.924 372.713 123.924 360.675 131.027C278.112 179.499 195.219 227.369 111.998 274.638C98.9969 282.029 94.7837 290.672 94.7837 305.31C95.3615 416.492 95.3615 527.617 94.7837 638.686C94.7837 654.865 100.369 663.099 113.828 670.586C209.263 724.01 304.338 778.18 399.509 832.134L518.539 899.859C518.539 847.037 519.96 799.487 517.937 752.01C516.926 728.416 525.16 715.632 545.649 705.183C577.886 688.836 608.125 668.588 640.146 651.735C655.337 643.766 659.406 633.606 659.406 617.355C658.756 514.263 658.539 411.123 659.406 308.007M482.474 825.345C482.474 829.943 482.474 825.585 482.474 836.636C417.831 799.969 353.043 763.615 291.169 727.549C288.126 725.47 285.571 722.755 283.68 719.591C281.789 716.428 280.606 712.892 280.214 709.228C279.613 560.296 279.757 411.364 279.757 258.074C299.018 268.667 315.461 277.768 331.929 286.965C376.878 312.003 422.092 336.561 466.44 362.635C473.783 366.944 481.752 377.802 481.8 385.843C482.715 532.368 482.474 678.917 482.378 825.489L482.474 825.345Z" stroke="#F7F7CE" stroke-width="1.46" stroke-miterlimit="10"/>
  <path d="M649.415 315.35C649.535 298.088 643.444 289.132 628.974 280.946C550.087 236.213 471.512 190.847 393.25 144.846C381.597 138.009 373.195 138.009 361.566 144.846C281.892 191.489 201.944 237.602 121.724 283.185C109.181 290.408 105.112 298.641 105.112 312.75C105.658 419.951 105.658 527.095 105.112 634.184C105.112 649.785 110.505 657.706 123.482 664.929C215.499 716.451 307.179 768.671 398.931 820.698L513.7 885.991C513.7 835.071 515.072 789.231 513.098 743.439C512.135 720.688 520.032 708.361 539.822 698.297C570.904 682.528 600.011 663.003 630.949 646.752C645.587 639.071 649.535 629.297 649.415 613.599C648.789 514.215 648.596 414.783 649.415 315.35M478.935 814.15C478.935 818.58 478.935 814.366 478.935 825.032C416.603 789.689 354.151 754.61 294.491 719.845C291.553 717.843 289.086 715.225 287.261 712.173C285.436 709.122 284.296 705.71 283.922 702.174C283.465 558.611 283.465 414.999 283.465 267.199C301.931 277.431 317.893 286.194 333.759 295.151C377.095 319.226 420.696 342.965 463.454 368.124C470.532 372.265 478.213 382.738 478.261 390.49C479.127 531.766 478.911 673.066 478.839 814.366L478.935 814.15Z" stroke="#F7F7CE" stroke-width="1.4" stroke-miterlimit="10"/>
  <path d="M639.592 322.693C639.712 306.057 633.862 297.438 619.898 289.565C543.899 246.485 468.229 202.804 392.888 158.521C381.669 151.948 373.628 151.948 362.36 158.521C285.671 203.462 208.693 247.858 131.427 291.708C119.389 298.569 115.44 306.586 115.44 320.189C115.986 423.409 115.986 526.574 115.44 629.682C115.44 644.681 120.641 652.337 133.136 659.271C221.734 708.866 309.948 759.161 398.354 809.262L508.837 872.124C508.837 823.081 510.161 778.951 508.283 734.892C507.344 712.983 514.952 701.186 533.996 691.436C563.922 676.244 591.994 657.441 621.752 641.816C635.836 634.4 639.64 624.963 639.52 609.891C638.918 514.191 638.725 418.442 639.52 322.717M475.372 802.954C475.372 807.216 475.372 803.171 475.372 813.427C415.375 779.384 355.21 745.63 297.789 712.165C294.962 710.233 292.586 707.711 290.828 704.773C289.07 701.834 287.97 698.548 287.606 695.143C287.052 556.901 287.172 418.634 287.172 276.227C304.964 286.074 320.348 294.524 335.612 303.144C377.336 326.401 419.323 349.176 460.493 373.396C467.306 377.393 474.697 387.481 474.746 395.064C475.588 531.092 475.372 667.119 475.299 803.195L475.372 802.954Z" stroke="#F7F7CE" stroke-width="1.34" stroke-miterlimit="10"/>
  <path d="M629.624 330.06C629.745 314.074 624.111 305.792 610.701 298.208C537.607 256.798 464.85 214.802 392.431 172.22C381.645 165.888 373.869 165.888 363.107 172.22C289.419 215.396 215.435 258.074 141.153 300.254C129.549 306.851 125.793 314.555 125.793 327.629C126.307 426.852 126.307 526.028 125.793 625.156C125.793 639.601 130.777 646.824 142.79 653.613C227.946 701.307 312.813 749.651 397.752 797.802L503.998 858.256C503.998 811.116 505.274 768.671 503.444 726.297C502.553 705.231 509.872 693.819 528.194 684.526C556.964 669.912 583.953 651.831 612.458 636.808C626.013 629.585 629.672 620.629 629.552 606.112C628.974 514.119 628.782 422.053 629.552 330.036M471.808 791.759C471.808 795.852 471.808 791.976 471.808 801.823C414.027 769.104 356.245 736.65 301.088 704.461C298.365 702.611 296.078 700.191 294.386 697.368C292.694 694.544 291.637 691.387 291.289 688.113C290.759 555.192 290.88 422.27 290.88 285.448C307.998 294.934 322.756 303.047 337.466 311.329C377.552 333.672 417.927 355.604 457.507 378.886C464.056 382.714 471.158 392.416 471.231 399.567C472.025 530.37 471.808 661.149 471.736 792L471.808 791.759Z" stroke="#F7F7CE" stroke-width="1.28" stroke-miterlimit="10"/>
  <path d="M619.777 337.379C619.922 322.019 614.505 314.074 601.624 306.803C531.5 267.078 461.681 226.775 392.166 185.895C381.814 179.804 374.326 179.804 363.998 185.895C293.215 227.305 222.184 268.234 150.904 308.681C139.733 315.013 136.146 322.428 136.146 334.972C136.643 430.215 136.643 525.41 136.146 620.557C136.146 634.425 140.961 641.479 152.469 647.883C234.326 693.627 315.678 740.069 397.198 786.27L499.158 844.292C499.158 799.03 500.386 758.318 498.653 717.63C497.786 697.407 504.816 686.476 522.391 677.52C550.006 663.508 575.912 646.222 603.358 631.776C616.359 624.963 619.85 616.247 619.753 602.332C619.2 514.022 619.007 425.665 619.753 337.331M468.245 780.564C468.245 784.488 468.245 780.756 468.245 790.194C412.871 758.775 357.377 727.597 304.362 696.732C301.752 694.956 299.561 692.631 297.943 689.92C296.325 687.208 295.32 684.176 294.997 681.035C294.467 553.434 294.587 425.833 294.587 294.524C311.007 303.625 325.188 311.377 339.296 319.37C377.817 340.822 416.531 361.864 454.522 384.206C460.806 387.89 467.643 397.207 467.691 404.069C468.462 529.623 468.245 655.154 468.173 780.708L468.245 780.564Z" stroke="#F7F7CE" stroke-width="1.22" stroke-miterlimit="10"/>
  <path d="M609.786 344.722C609.786 330.012 604.73 322.38 592.404 315.422C525.249 277.351 458.382 238.733 391.805 199.57C381.886 193.72 374.711 193.72 364.816 199.57C296.955 239.247 228.909 278.498 160.679 317.324C149.989 323.391 146.546 330.494 146.546 342.507C147.028 433.754 147.028 524.969 146.546 616.151C146.546 629.417 151.145 636.182 162.196 642.322C240.514 686.163 318.567 730.655 396.692 774.93L494.392 830.521C494.392 787.185 495.547 748.134 493.886 709.156C493.067 689.895 499.784 679.302 516.637 670.635C543.121 657.224 567.919 640.588 594.209 626.745C606.68 620.22 610.027 611.89 609.931 598.528C609.401 513.926 609.232 429.252 609.931 344.626M464.682 769.369C464.682 773.125 464.682 769.561 464.682 778.638C411.716 748.519 358.412 718.69 307.637 689.077C305.135 687.373 303.036 685.144 301.485 682.545C299.934 679.946 298.968 677.04 298.656 674.029C298.151 551.797 298.271 429.541 298.271 303.721C313.993 312.413 327.571 319.9 341.102 327.508C377.986 348.069 415.11 368.22 451.513 389.648C457.532 393.163 464.08 402.071 464.128 408.667C464.851 529.046 464.658 649.255 464.586 769.561L464.682 769.369Z" stroke="#F7F7CE" stroke-width="1.16" stroke-miterlimit="10"/>
  <path d="M599.867 351.969C599.987 337.909 595.052 330.638 583.231 323.969C519.029 287.567 455.044 250.651 391.275 213.221C381.645 207.635 374.928 207.635 365.466 213.221C300.687 251.18 235.634 288.73 170.309 325.871C160.077 331.673 156.778 338.438 156.778 349.947C157.228 437.229 157.228 524.455 156.778 611.625C156.778 624.337 161.184 630.886 171.729 636.664C246.653 678.603 321.287 721.145 395.994 763.494L489.432 816.653C489.432 775.195 490.563 737.854 488.974 700.585C488.156 682.07 494.608 672.031 510.642 663.845C535.946 651.013 559.684 635.099 584.844 621.881C596.761 615.622 599.963 607.653 599.867 594.892C599.361 513.974 599.193 433.008 599.867 352.041M461.143 758.174C461.143 761.761 461.143 758.342 461.143 767.033C410.391 738.143 359.519 709.685 310.959 681.372C308.556 679.74 306.541 677.601 305.056 675.105C303.571 672.609 302.652 669.817 302.364 666.927C301.882 550.039 302.003 433.104 302.003 312.774C317.026 321.104 330.027 328.254 342.931 335.525C378.202 355.195 413.714 374.456 448.527 394.944C454.281 398.315 460.565 406.837 460.565 413.145C461.263 528.179 461.071 643.212 461.022 758.27L461.143 758.174Z" stroke="#F7F7CE" stroke-width="1.1" stroke-miterlimit="10"/>
  <path d="M589.924 359.336C589.924 345.926 585.301 338.968 574.058 332.612C512.713 297.863 451.641 262.616 390.842 226.872C381.79 221.551 375.241 221.551 366.213 226.872C304.435 263.114 242.343 298.954 179.939 334.394C170.309 339.931 167.059 346.432 167.059 357.362C167.492 440.664 167.492 523.917 167.059 607.123C167.059 619.161 171.248 625.42 181.312 631.006C252.816 671.044 324.056 711.635 395.344 752.058L484.424 802.786C484.424 763.206 485.484 727.598 483.967 692.038C483.196 674.366 489.36 664.784 504.72 656.96C528.796 644.729 551.523 629.537 575.527 616.922C586.914 610.951 589.972 603.343 589.972 591.161C589.49 513.926 589.322 436.667 589.972 359.408M457.58 746.954C457.58 750.397 457.58 747.147 457.58 755.429C409.14 727.959 360.603 700.705 314.257 673.692C311.974 672.139 310.056 670.107 308.638 667.737C307.22 665.367 306.336 662.716 306.048 659.969C305.59 548.402 305.687 436.812 305.687 321.971C320.132 329.916 332.459 336.729 344.785 343.639C378.491 362.418 412.318 380.812 445.566 400.337C451.055 403.563 457.026 411.701 457.074 417.72C457.748 527.505 457.556 637.29 457.508 747.099L457.58 746.954Z" stroke="#F7F7CE" stroke-width="1.04" stroke-miterlimit="10"/>
  <path d="M580.125 366.727C580.125 353.943 575.719 347.467 565.005 341.279C506.598 308.199 448.447 274.638 390.553 240.595C381.934 235.515 375.723 235.515 367.103 240.595C308.134 275.103 249.012 309.211 189.738 342.916C180.445 348.189 177.459 354.352 177.459 364.777C177.861 444.098 177.861 523.372 177.459 602.597C177.459 614.129 181.456 620.003 191.038 625.348C259.124 663.46 326.945 702.101 394.839 740.574L479.729 788.894C479.729 751.216 480.765 717.293 479.296 683.419C478.574 666.566 484.424 657.465 499.086 650.026C522.078 638.373 543.626 623.904 566.498 611.89C577.332 606.208 580.245 598.985 580.149 587.381C579.692 513.83 579.547 440.254 580.149 366.703M454.017 735.759C454.017 739.033 454.017 735.928 454.017 743.824C407.888 717.654 361.662 691.725 317.556 665.988C315.381 664.513 313.553 662.581 312.202 660.328C310.85 658.074 310.007 655.552 309.731 652.939C309.298 546.693 309.394 440.447 309.394 331.095C323.069 338.679 334.866 345.155 346.615 351.776C378.66 369.64 410.921 387.168 442.581 405.778C447.805 408.836 453.487 416.588 453.535 422.318C454.161 526.854 454.017 631.391 453.944 735.928L454.017 735.759Z" stroke="#F7F7CE" stroke-width="0.98" stroke-miterlimit="10"/>
  <path d="M570.302 374.07C570.302 362.033 566.113 355.653 555.856 349.995C500.354 318.568 445.124 286.692 390.168 254.366C381.982 249.551 376.059 249.551 367.898 254.366C311.93 287.125 255.753 319.523 199.368 351.56C190.532 356.567 187.691 362.418 187.691 372.337C188.077 447.678 188.077 522.97 187.691 598.215C187.691 609.169 191.495 614.731 200.596 619.883C265.263 655.996 329.666 692.784 394.14 729.331L474.794 775.219C474.794 739.419 475.757 707.229 474.384 675.04C473.686 659.054 479.2 650.411 493.163 643.333C515 632.258 535.488 618.535 557.181 607.219C567.485 601.802 570.254 594.941 570.157 583.914C569.724 514.094 569.58 444.275 570.157 374.335M450.453 724.564C450.453 727.67 450.453 724.732 450.453 732.22C406.732 707.374 362.914 682.745 320.902 658.308C318.84 656.898 317.108 655.057 315.828 652.912C314.548 650.767 313.749 648.369 313.487 645.885C313.077 545.008 313.174 444.082 313.174 340.244C326.151 347.467 337.249 353.582 348.517 359.866C378.973 376.839 409.597 393.572 439.643 411.147C444.627 414.06 450.02 421.427 450.068 426.868C450.67 526.156 450.525 625.42 450.453 724.732V724.564Z" stroke="#F7F7CE" stroke-width="0.92" stroke-miterlimit="10"/>
  <path d="M560.335 381.437C560.335 369.929 556.362 363.983 546.732 358.542C494.199 328.784 441.891 298.593 389.807 267.969C382.054 263.419 376.445 263.419 368.717 267.969C315.75 298.994 262.543 329.683 209.095 360.034C200.741 364.849 198.044 370.315 198.044 379.704C198.429 451.032 198.429 522.336 198.044 593.616C198.044 603.993 201.631 609.29 210.275 614.081C271.499 648.364 332.531 683.13 393.587 717.75L469.955 761.207C469.955 727.308 470.87 696.805 469.57 666.325C468.919 651.181 474.192 642.995 487.361 636.302C508.042 625.805 527.447 612.805 548.008 601.995C557.638 596.866 560.359 590.366 560.287 579.941C559.877 513.781 559.733 447.525 560.287 381.437M446.89 713.369C446.89 716.306 446.89 713.513 446.89 720.591C405.408 697.069 363.829 673.716 324.104 650.579C322.151 649.248 320.51 647.508 319.296 645.479C318.082 643.45 317.324 641.181 317.074 638.83C316.689 543.274 316.785 447.694 316.785 349.345C329.064 356.158 339.705 361.984 350.251 367.931C379.141 384.014 408.032 399.759 436.562 416.516C441.377 419.26 446.385 426.146 446.433 431.394C447.011 525.41 446.866 619.449 446.794 713.489L446.89 713.369Z" stroke="#F7F7CE" stroke-width="0.86" stroke-miterlimit="10"/>
  <path d="M550.512 388.66C550.512 377.802 546.756 372.192 537.655 366.992C488.059 338.888 438.68 310.382 389.518 281.475C382.175 277.166 376.902 277.166 369.583 281.475C319.522 310.783 269.292 339.754 218.894 368.388C210.997 372.867 208.469 378.019 208.469 386.975C208.806 454.387 208.806 521.71 208.469 588.946C208.469 598.744 211.839 603.728 220.001 608.206C277.783 640.588 335.42 673.403 393.081 706.098L465.187 747.026C465.187 715.03 466.054 686.211 464.826 657.441C464.2 643.164 469.184 635.412 481.679 629.08C501.205 619.185 519.526 606.906 538.931 596.698C548.128 591.883 550.608 585.719 550.536 575.873C550.15 513.42 550.006 450.944 550.536 388.468M443.327 702.173C443.327 704.942 443.327 702.318 443.327 709.011C404.156 686.789 364.912 664.76 327.427 642.923C325.584 641.662 324.036 640.017 322.889 638.101C321.742 636.185 321.023 634.044 320.782 631.824C320.421 541.589 320.493 451.257 320.493 358.493C332.121 364.922 342.161 370.531 352.128 376.045C379.334 391.236 406.732 406.115 433.6 421.909C438.054 424.509 442.869 431.106 442.918 435.969C443.471 524.736 443.327 613.527 443.255 702.318L443.327 702.173Z" stroke="#F7F7CE" stroke-width="0.8" stroke-miterlimit="10"/>
  <path d="M540.569 396.1C540.569 385.892 537.029 380.595 528.531 375.756C481.856 349.321 435.39 322.501 389.133 295.295C382.247 291.25 377.263 291.25 370.402 295.295C323.31 322.854 276.041 350.139 228.596 377.152C221.181 381.365 218.797 386.277 218.797 394.631C219.102 457.998 219.102 521.341 218.797 584.66C218.797 593.881 221.975 598.576 229.655 602.838C284.042 633.293 338.237 664.158 392.479 694.927L460.324 733.448C460.324 703.329 461.143 676.244 459.987 649.183C459.41 635.725 464.08 628.43 475.781 622.483C494.151 613.166 511.389 601.61 529.662 592.003C538.305 587.477 540.641 581.699 540.569 572.43C540.183 513.653 540.183 454.877 540.569 396.1M439.788 690.979C439.788 693.603 439.788 691.099 439.788 697.407C402.928 676.509 365.996 655.78 330.749 635.219C329.008 634.039 327.545 632.492 326.464 630.687C325.383 628.882 324.709 626.863 324.49 624.77C324.152 539.904 324.225 454.989 324.225 367.618C335.155 373.661 344.593 378.862 353.982 384.134C379.575 398.411 405.36 412.423 430.639 427.278C434.828 429.685 439.379 435.921 439.403 440.519C439.908 524.038 439.788 607.556 439.74 691.099L439.788 690.979Z" stroke="#F7F7CE" stroke-width="0.74" stroke-miterlimit="10"/>
  <path d="M530.721 403.443C530.721 393.813 527.423 388.997 519.382 384.375C475.66 359.609 432.124 334.474 388.771 308.97C382.295 305.19 377.648 305.19 371.196 308.97C327.074 334.811 282.782 360.355 238.323 385.603C231.365 389.551 229.126 394.174 229.126 401.998C229.431 461.385 229.431 520.772 229.126 580.158C229.126 588.801 232.111 593.207 239.31 597.204C290.278 625.733 341.078 654.672 391.901 683.491L455.485 719.604C455.485 691.388 456.231 665.988 455.148 640.636C454.618 628.021 459 621.183 469.955 615.622C487.193 606.882 503.323 596.048 520.513 587.068C528.627 582.807 530.818 577.438 530.746 568.698C530.384 513.637 530.288 458.528 530.746 403.467M436.225 679.783C436.225 682.191 436.225 679.904 436.225 685.802C401.7 666.229 367.079 646.8 334.023 627.539C332.4 626.424 331.037 624.97 330.027 623.279C329.017 621.588 328.385 619.699 328.173 617.74C327.86 538.291 327.932 458.648 327.932 376.743C338.164 382.425 347 387.288 355.812 392.248C379.888 405.61 403.963 418.731 427.654 432.671C431.578 434.958 435.839 440.76 435.863 445.046C436.345 523.34 436.225 601.537 436.176 679.904L436.225 679.783Z" stroke="#F7F7CE" stroke-width="0.68" stroke-miterlimit="10"/>
  <path d="M520.803 410.714C520.803 401.806 517.745 397.183 510.257 392.946C469.457 369.833 428.834 346.383 388.386 322.597C386.006 320.87 383.141 319.94 380.201 319.94C377.26 319.94 374.395 320.87 372.015 322.597C330.813 346.672 289.492 370.507 248.049 394.101C241.549 397.785 239.454 402.095 239.454 409.389C239.743 464.78 239.743 520.154 239.454 575.512C239.454 583.577 242.247 587.67 248.94 591.402C296.514 618.029 343.895 645.018 391.324 671.911L450.622 705.616C450.622 679.302 451.344 655.587 450.333 631.945C449.828 620.172 453.92 613.816 464.153 608.616C480.211 600.454 495.282 590.366 511.245 581.964C518.804 577.991 520.875 572.935 520.875 564.822C520.538 513.469 520.441 462.067 520.875 410.738M432.734 668.588C432.734 670.996 432.734 668.588 432.734 674.198C400.496 655.9 368.211 637.819 337.37 619.787C335.855 618.75 334.583 617.397 333.639 615.822C332.696 614.247 332.104 612.487 331.905 610.662C331.616 536.461 331.688 462.236 331.688 385.843C341.318 391.116 349.48 395.666 357.69 400.289C380.08 412.76 402.615 424.991 424.717 437.991C428.376 440.134 432.349 445.551 432.373 449.548C432.83 522.593 432.71 595.615 432.662 668.636L432.734 668.588Z" stroke="#F7F7CE" stroke-width="0.62" stroke-miterlimit="10"/>
  <path d="M510.859 418.105C510.859 409.823 508.018 405.537 501.06 401.613C463.181 380.153 425.463 358.389 387.905 336.32C385.694 334.723 383.036 333.864 380.309 333.864C377.582 333.864 374.924 334.723 372.713 336.32C334.497 358.694 296.144 380.812 257.655 402.672C251.636 406.091 249.686 410.087 249.686 416.877C249.975 468.238 249.975 519.6 249.686 570.961C249.686 578.449 252.286 582.253 258.498 585.695C302.653 610.421 346.615 635.484 390.625 660.33L445.686 691.628C445.686 667.191 446.336 645.21 445.397 623.253C444.94 612.323 448.72 606.4 458.23 601.585C473.132 594.026 487.12 584.732 501.927 576.86C508.957 573.176 510.835 568.481 510.787 560.97C510.482 513.3 510.482 465.606 510.787 417.888M429.098 657.393C429.098 659.511 429.098 657.393 429.098 662.593C399.196 645.74 369.222 628.887 340.62 612.155C339.222 611.182 338.046 609.923 337.17 608.462C336.295 607.002 335.739 605.371 335.54 603.68C335.275 534.799 335.347 465.919 335.347 395.016C344.207 399.831 351.863 404.141 359.423 408.426C380.2 420.007 401.122 431.37 421.635 443.432C425.029 445.406 428.713 450.438 428.737 454.146C429.146 521.919 429.05 589.692 429.002 657.489L429.098 657.393Z" stroke="#F7F7CE" stroke-width="0.56" stroke-miterlimit="10"/>
  <path d="M500.94 425.52C500.94 417.888 498.316 413.916 491.912 410.304C456.97 390.514 422.188 370.451 387.568 350.115C385.522 348.647 383.067 347.858 380.55 347.858C378.032 347.858 375.577 348.647 373.532 350.115C338.221 370.74 302.845 391.148 267.406 411.339C261.845 414.493 260.183 418.177 260.183 424.413C260.424 471.858 260.424 519.271 260.183 566.652C260.183 573.561 262.591 577.076 268.297 580.278C309.009 603.054 349.576 626.191 390.192 649.207L440.992 678.098C440.992 655.563 441.593 635.267 440.727 615.02C440.293 604.956 443.784 599.491 452.548 595.037C466.295 588.055 479.2 579.412 492.875 572.237C499.351 568.818 501.084 564.509 501.036 557.551C500.747 513.573 500.747 469.578 501.036 425.568M425.511 646.27C425.511 648.244 425.511 646.39 425.511 651.085C397.92 635.436 370.281 619.787 343.894 604.523C342.587 603.643 341.491 602.486 340.684 601.133C339.876 599.78 339.378 598.266 339.224 596.698C338.959 533.162 339.007 469.627 339.007 404.213C347.193 408.739 354.247 412.616 361.277 416.588C380.538 427.278 399.798 437.75 418.673 448.873C420.415 449.952 421.902 451.395 423.032 453.103C424.163 454.811 424.91 456.744 425.222 458.769C425.607 521.365 425.511 583.818 425.463 646.366L425.511 646.27Z" stroke="#F7F7CE" stroke-width="0.5" stroke-miterlimit="10"/>
  </svg>
