<svg width="142" height="28" viewBox="0 0 142 28" fill="none" xmlns="http://www.w3.org/2000/svg">
<path d="M25.33 1.00001L20.14 10L15.31 18.61L10.48 10L5.29001 1.00001H0.820007L13.09 22H17.53L29.8 1.00001H25.33Z" fill="#2C3437"/>
<path d="M48.9707 15.64C51.0407 9.10001 45.6107 5.80001 38.7707 5.80001C31.6607 5.80001 28.2407 9.61001 28.2407 14.23C28.2407 19.54 32.1707 22.45 40.1207 22.45C44.4707 22.45 48.1607 21.58 49.2107 21.19L48.4907 17.8C47.6207 18.07 43.9607 18.85 40.0007 18.85C35.3507 18.85 33.0407 17.8 32.4107 15.64H48.9707ZM32.3207 12.88C32.8307 10.78 34.6307 9.31001 38.9807 9.31001C43.0607 9.31001 45.6407 10.51 45.1307 12.88H32.3207Z" fill="#2C3437"/>
<path d="M52.0591 21.13C55.9891 22.12 58.6591 22.45 62.1991 22.45C65.3491 22.45 73.5691 22.18 73.5691 17.08C73.5691 12.67 67.6591 12.49 62.7991 12.43C59.4091 12.4 56.4391 12.4 56.4391 10.99C56.4391 9.64001 58.9291 9.40001 61.8991 9.40001C65.3491 9.40001 67.8091 9.61001 71.5891 10.27L72.1891 6.70001C68.7091 6.10001 65.4991 5.80001 62.5891 5.80001C59.0191 5.80001 52.4791 6.07001 52.4791 10.96C52.4791 15.28 58.1491 15.67 62.9191 15.76C66.4891 15.82 69.6391 15.76 69.6391 17.11C69.6391 18.76 64.4791 18.85 62.6491 18.85C59.5291 18.85 57.0391 18.52 52.8391 17.59L52.0591 21.13Z" fill="#2C3437"/>
<path d="M80.9838 1.90001L77.1138 2.29001V6.25001H75.0138V9.46001H77.1138V16.9C77.1138 21.04 78.9138 22.45 82.0638 22.45C83.1438 22.45 84.3438 22.27 85.6938 22V19.03C84.6738 19.12 83.8338 19.21 83.1738 19.21C81.6138 19.21 80.9838 18.64 80.9838 16.9V9.46001H85.6938V6.25001H80.9838V1.90001Z" fill="#2C3437"/>
<path d="M92.7248 22V6.01001L88.8548 6.40001V22H92.7248ZM92.7248 4.36001V0.76001H88.8548V4.36001H92.7248Z" fill="#2C3437"/>
<path d="M117.665 22V14.02C117.665 9.31001 114.905 5.80001 107.975 5.80001C104.975 5.80001 102.635 6.49001 100.445 7.42001L100.415 7.39001L100.295 6.01001L96.5751 6.40001V22H100.445V10.54C102.725 9.97001 105.065 9.40001 107.615 9.40001C112.445 9.40001 113.795 11.38 113.795 14.05V22H117.665Z" fill="#2C3437"/>
<path d="M121.011 11.8C121.011 13.99 122.271 15.46 124.311 16.33C122.541 17.26 121.731 18.58 121.551 19.63C121.641 21.16 122.871 21.94 123.921 22.03C126.081 21.67 129.352 21.37 132.171 21.37C135.201 21.37 137.721 21.7 137.721 22.78C137.721 24.13 134.211 24.34 131.481 24.34C125.451 24.34 121.431 23.44 120.681 23.26L119.961 26.65C121.071 27.01 124.701 27.91 130.701 27.91C133.791 27.91 141.711 27.61 141.711 22.66C141.711 19.45 138.411 18.49 134.631 18.49C130.941 18.49 126.741 19.42 124.761 20.02C124.401 19.03 125.481 17.53 126.231 16.9C127.521 17.2 129.081 17.35 130.731 17.35C136.341 17.35 140.451 15.76 140.451 11.8C140.451 9.82001 139.341 8.35001 137.571 7.39001C137.811 7.33001 141.471 7.27001 141.861 7.27001L141.651 4.99001C138.681 4.99001 135.471 5.59001 134.091 6.10001C133.041 5.92001 131.931 5.80001 130.731 5.80001C125.301 5.80001 121.011 7.84001 121.011 11.8ZM124.971 11.8C124.971 10.21 127.461 9.40001 130.731 9.40001C134.001 9.40001 136.491 10.21 136.491 11.8C136.491 13.42 134.031 14.14 130.731 14.14C127.431 14.14 124.971 13.42 124.971 11.8Z" fill="#2C3437"/>
</svg>
