<svg width="40" height="54" viewBox="0 0 40 54" fill="none" xmlns="http://www.w3.org/2000/svg">
  <path d="M39.2524 12.7917C39.2524 11.5475 38.8233 10.9188 37.7802 10.3168C32.0882 7.10609 26.4212 3.84192 20.7792 0.524225C19.9372 0.0319226 19.3285 0.0319226 18.5026 0.521549C12.7516 3.8767 6.98362 7.19528 1.19865 10.4773C0.292288 10.991 0 11.5903 0 12.6044C0.04648 20.3153 0.04648 28.0272 0 35.7399C0 36.8636 0.388823 37.4335 1.32468 37.9579C7.95881 41.6636 14.5688 45.4227 21.1868 49.1632L29.4621 53.8454C29.4621 50.1826 29.5613 46.8889 29.4192 43.5953C29.3494 41.9552 29.9179 41.0696 31.3472 40.3472C33.5863 39.2101 35.6913 37.8081 37.917 36.6389C38.9708 36.085 39.2577 35.3814 39.2577 34.2523C39.2095 27.1005 39.1961 19.9488 39.2577 12.7943L39.2524 12.7917ZM26.9548 48.6789C26.9193 48.9081 26.8636 49.1337 26.7886 49.3531C22.297 46.814 17.9663 44.3846 13.6598 41.8937C13.4481 41.7496 13.2703 41.5613 13.1388 41.3419C13.0073 41.1224 12.9252 40.8771 12.8982 40.6228C12.8553 30.2925 12.8714 19.9541 12.8714 9.32681C14.2122 10.0626 15.3518 10.694 16.4995 11.3308C19.6235 13.0699 22.769 14.7742 25.8527 16.5802C26.3622 16.8799 26.9253 17.6344 26.9253 18.1856C26.9897 28.3527 26.9709 38.5198 26.9656 48.6869" fill="#F7F7CE"/>
  </svg>
