<svg width="22" height="22" viewBox="0 0 22 22" fill="none" xmlns="http://www.w3.org/2000/svg">
<circle cx="11" cy="11" r="11" fill="url(#paint0_linear)"/>
<path fill-rule="evenodd" clip-rule="evenodd" d="M17.7247 10.9656L14.7045 9.57533V5.59194C14.7017 5.42127 14.5995 5.26796 14.443 5.1997L11.1744 3.69613C11.0582 3.64239 10.9244 3.64239 10.8083 3.69613L7.53962 5.1997C7.38515 5.27119 7.28643 5.42608 7.28685 5.5963V9.57969L4.27969 10.9656C4.12522 11.0371 4.0265 11.192 4.02692 11.3622V15.6245C4.0265 15.7947 4.12522 15.9496 4.27969 16.0211L7.54834 17.5247C7.66445 17.5784 7.79831 17.5784 7.91443 17.5247L11 16.1039L14.0856 17.5247C14.2017 17.5784 14.3356 17.5784 14.4517 17.5247L17.7204 16.0211C17.8748 15.9496 17.9736 15.7947 17.9731 15.6245V11.3622C17.9743 11.193 17.8775 11.0384 17.7247 10.9656ZM14.273 12.3776L12.046 11.3622L14.273 10.338L16.5 11.3622L14.273 12.3776ZM13.8329 9.57295L13.8372 9.57092L13.8329 9.57963V9.57295ZM13.8329 6.27612V9.57295L11.0305 10.8784V7.52692C11.0831 7.5246 11.1347 7.51279 11.1831 7.49206L13.8329 6.27612ZM11 4.56769L13.2271 5.59187L11 6.61604L8.77736 5.59187L11 4.56769ZM9.95839 11.3578L7.73135 10.3336L5.50431 11.3622L7.73135 12.3776L9.95839 11.3578ZM10.5642 15.3412L7.73134 16.6487V13.2972C7.79216 13.2936 7.85155 13.2773 7.90567 13.2493L10.5554 12.029L10.5642 15.3412ZM14.2861 16.6487L17.1015 15.3412L17.0928 12.029L14.443 13.2493C14.3942 13.2751 14.341 13.2913 14.2861 13.2972V16.6487Z" fill="white" fill-opacity="0.4"/>
<defs>
<linearGradient id="paint0_linear" x1="23.7188" y1="-3.78125" x2="-6.53125" y2="39.5313" gradientUnits="userSpaceOnUse">
<stop stop-color="#903EF9"/>
<stop offset="1" stop-color="#F9493E" stop-opacity="0"/>
</linearGradient>
</defs>
</svg>
