<?xml version="1.0" encoding="utf-8"?>
<svg viewBox="161.105 172.037 59.263 51.784" xmlns="http://www.w3.org/2000/svg">
  <path d="M22.079 16.454a2.173 2.173 0 00-1.74.166L1.043 27.78c-.012 0-.012.012-.023.012-.977.595-1.287 1.713-.775 2.772.644 1.309 2.907 2.546 5.635 3.081.845.167 1.858.286 3.013.286 2.168 0 4.837-.428 7.803-1.808 2.299-1.071 4.479-3.403 5.837-6.247 1.43-2.998 1.715-6.008.774-8.28a2.011 2.011 0 00-1.227-1.142zM52.002 27.804c-.012 0-.012-.012-.024-.012l-19.297-11.16a2.072 2.072 0 00-1.74-.166c-.56.19-1.012.606-1.226 1.142-.942 2.272-.656 5.294.774 8.28 1.358 2.844 3.538 5.176 5.837 6.246 2.954 1.38 5.622 1.809 7.802 1.809 1.155 0 2.168-.12 3.014-.286 2.728-.523 4.99-1.76 5.634-3.081.512-1.059.203-2.166-.774-2.772z" fill="#7CE0D6" transform="matrix(1, 0, 0, 1, 163.542407, 177.777881)" />
  <path d="M24.652 6.948a.93.93 0 01-.93-.928 4.171 4.171 0 00-4.168-4.164.93.93 0 01-.93-.928.93.93 0 01.93-.928c3.323 0 6.015 2.7 6.015 6.008a.915.915 0 01-.917.94zM28.488 6.949a.93.93 0 01-.93-.928c0-3.308 2.705-6.009 6.028-6.009a.93.93 0 01.93.928.93.93 0 01-.93.928c-2.299 0-4.17 1.868-4.17 4.164a.935.935 0 01-.928.917zM35.611 32.301H15.671l9.064 5.223a3.528 3.528 0 001.787.476c.62 0 1.24-.154 1.787-.476l9.065-5.223h-1.763zM38.41 20.773H13.693v5.984H39.34v-5.984h-.93z" fill="#2C3437" transform="matrix(1, 0, 0, 1, 163.542407, 177.777881)" />
  <path d="M37.553 15.348l-.227-.131H15.706l-.226.13a3.582 3.582 0 00-1.787 3.082v2.344H39.363v-2.344a3.672 3.672 0 00-1.81-3.081zM38.41 26.757H13.681v2.356c0 1.261.68 2.45 1.787 3.081l.19.107H37.35l.203-.119a3.586 3.586 0 001.775-3.08v-2.357h-.918v.012z" fill="#FFDD0F" transform="matrix(1, 0, 0, 1, 163.542407, 177.777881)" />
  <path d="M28.297 10.018a3.532 3.532 0 00-3.562 0l-9.029 5.211h21.632l-9.041-5.211z" fill="#2C3437" transform="matrix(1, 0, 0, 1, 163.542407, 177.777881)" />
</svg>
